<?xml version="1.0" standalone="no"?>
<!DOCTYPE svg PUBLIC "-//W3C//DTD SVG 20010904//EN"
 "http://www.w3.org/TR/2001/REC-SVG-20010904/DTD/svg10.dtd">
<svg version="1.0" xmlns="http://www.w3.org/2000/svg"
 width="512.000000pt" height="512.000000pt" viewBox="0 0 512.000000 512.000000"
 preserveAspectRatio="xMidYMid meet">

<g transform="translate(0.000000,512.000000) scale(0.100000,-0.100000)"
fill="#000000" stroke="none">
<path d="M1810 5085 c-220 -64 -485 -185 -678 -311 -314 -205 -608 -503 -807
-819 -71 -112 -192 -358 -238 -485 -42 -114 -88 -280 -79 -280 4 0 16 33 26
73 48 187 184 497 301 682 205 326 517 638 839 839 192 120 454 238 652 293
104 28 110 30 103 37 -2 2 -56 -11 -119 -29z"/>
<path d="M3200 5112 c0 -4 33 -16 73 -26 187 -48 497 -184 682 -301 326 -205
638 -517 839 -839 115 -184 238 -454 288 -633 13 -46 26 -83 30 -83 9 0 -27
125 -69 240 -46 125 -167 373 -238 485 -205 326 -514 635 -840 840 -112 71
-358 192 -485 238 -114 42 -280 88 -280 79z"/>
<path d="M2353 3820 c-95 -93 -173 -176 -173 -184 0 -12 330 -336 343 -336 3
0 84 76 179 170 l173 169 -175 175 -175 176 -172 -170z m137 -180 c0 -60 -4
-110 -9 -110 -5 0 -32 25 -61 57 l-51 56 53 54 c29 29 56 53 60 53 4 0 8 -49
8 -110z m130 -55 c-30 -30 -57 -55 -60 -55 -3 0 -4 50 -2 112 l3 111 57 -56
57 -57 -55 -55z"/>
<path d="M770 3781 c0 -26 -4 -30 -32 -33 -28 -2 -34 -8 -36 -30 -3 -24 0 -28
23 -28 20 0 26 -4 23 -17 -2 -12 -13 -18 -33 -18 -26 -1 -30 -5 -33 -33 -3
-30 -1 -32 27 -32 l31 0 0 -1075 0 -1075 -30 0 c-28 0 -30 -3 -30 -35 0 -33 2
-35 35 -35 24 0 35 -5 35 -15 0 -9 -9 -15 -25 -15 -21 0 -25 -5 -25 -30 0 -28
3 -30 35 -30 32 0 35 -2 35 -30 0 -27 3 -30 30 -30 27 0 30 3 30 30 0 23 4 30
20 30 16 0 20 -7 20 -30 0 -27 3 -30 30 -30 27 0 30 3 30 30 l0 30 735 0 c404
0 735 -3 735 -7 0 -3 -7 -15 -16 -25 -14 -14 -14 -20 -4 -33 16 -20 29 -19 53
2 19 18 20 17 13 -18 -5 -29 -3 -38 10 -43 26 -10 34 -7 46 19 14 31 28 23 28
-16 0 -26 3 -29 30 -29 27 0 30 3 30 30 0 34 14 39 30 10 21 -40 65 -15 49 28
-12 31 -2 43 15 19 16 -21 39 -22 56 -2 10 13 10 19 -4 33 -9 10 -16 22 -16
25 0 4 335 7 745 7 l745 0 0 -30 c0 -27 3 -30 30 -30 27 0 30 3 30 30 0 23 4
30 20 30 16 0 20 -7 20 -30 0 -28 3 -30 35 -30 32 0 35 2 35 30 0 28 3 30 35
30 32 0 35 2 35 30 0 27 -3 30 -30 30 -20 0 -30 5 -30 15 0 11 11 15 40 15 39
0 40 1 40 35 0 32 -2 35 -30 35 l-30 0 0 1075 0 1075 31 0 c28 0 30 2 27 33
-3 29 -6 32 -40 35 -47 4 -54 32 -8 32 27 0 30 3 30 30 0 28 -3 30 -35 30 -32
0 -35 2 -35 30 0 28 -3 30 -35 30 -32 0 -35 -2 -35 -30 0 -23 -4 -30 -20 -30
-16 0 -20 7 -20 30 0 27 -3 30 -30 30 -28 0 -30 -3 -30 -35 l0 -35 -660 0
c-369 0 -660 -4 -660 -9 0 -11 80 -84 111 -102 19 -11 145 -15 638 -19 l614
-5 1 -1090 1 -1090 -720 -5 c-708 -5 -721 -5 -777 -27 -65 -24 -106 -50 -159
-101 l-37 -34 -42 41 c-51 49 -145 97 -219 111 -33 6 -320 10 -732 10 l-679 0
0 1095 0 1095 550 0 c617 0 590 -3 668 73 23 22 42 45 42 49 0 4 -273 9 -607
10 l-608 3 -3 33 c-3 28 -7 32 -33 32 -25 0 -29 -4 -29 -28 0 -34 -7 -43 -26
-35 -8 3 -14 18 -14 34 0 26 -4 29 -30 29 -27 0 -30 -3 -30 -29z"/>
<path d="M1053 3403 c-16 -6 -17 -45 -1 -61 9 -9 149 -12 569 -12 494 0 559 2
573 16 9 8 16 19 16 24 0 5 -7 16 -16 24 -14 14 -79 16 -572 15 -306 0 -563
-3 -569 -6z"/>
<path d="M2846 3395 c-15 -16 -11 -44 8 -57 13 -9 1217 -11 1240 -2 19 7 21
45 4 62 -9 9 -161 12 -624 12 -536 0 -614 -2 -628 -15z"/>
<path d="M1100 3162 c0 -11 9 -27 20 -37 19 -17 20 -31 20 -297 l0 -279 -26
-24 c-16 -15 -24 -31 -20 -40 8 -22 244 -22 252 0 4 9 -4 25 -20 40 -24 22
-26 31 -26 103 0 61 4 85 18 101 17 21 18 20 147 -119 l130 -139 108 -1 c79 0
107 3 107 12 0 7 -79 92 -176 189 l-177 177 151 151 c83 83 156 151 162 151 5
0 10 7 10 15 0 22 -288 22 -296 0 -4 -8 -1 -22 6 -30 16 -19 -4 -46 -109 -150
l-81 -80 0 97 c0 89 2 99 26 127 14 17 23 35 19 41 -4 6 -55 10 -126 10 -109
0 -119 -2 -119 -18z"/>
<path d="M2753 3164 c-3 -8 4 -25 16 -38 20 -22 21 -31 21 -301 0 -270 -1
-279 -21 -301 -12 -13 -19 -30 -16 -38 6 -14 36 -16 216 -16 245 0 224 -12
219 125 -3 77 -4 80 -28 83 -17 2 -34 -6 -50 -23 -20 -22 -32 -25 -87 -25
l-63 0 0 244 c0 204 2 246 15 256 8 7 15 21 15 31 0 18 -9 19 -115 19 -95 0
-117 -3 -122 -16z"/>
<path d="M3273 3164 c-4 -11 1 -22 13 -31 17 -13 19 -32 24 -241 l5 -227 30
-54 c58 -105 168 -165 302 -165 123 1 226 66 289 184 16 30 20 65 24 256 4
193 7 225 23 241 9 11 17 27 17 36 0 15 -14 17 -115 17 -95 0 -117 -3 -122
-15 -3 -9 2 -24 11 -34 14 -15 16 -46 16 -202 0 -160 -2 -189 -19 -219 -27
-52 -74 -80 -133 -80 -59 0 -95 19 -128 68 -24 34 -25 43 -28 225 -3 183 -2
190 18 212 12 13 19 28 15 34 -4 7 -50 11 -121 11 -97 0 -116 -3 -121 -16z"/>
<path d="M2051 2897 c-8 -11 -6 -18 9 -32 17 -15 20 -31 20 -104 0 -112 -14
-136 -74 -127 -87 13 -89 13 -97 -16 -4 -15 -10 -49 -14 -77 -6 -48 -6 -50 24
-65 17 -9 57 -19 89 -22 47 -5 68 -2 107 15 65 29 83 46 111 106 20 43 24 66
24 158 0 95 2 109 20 124 24 21 26 39 4 47 -33 12 -211 7 -223 -7z"/>
<path d="M1752 2888 c-7 -7 -12 -21 -12 -33 0 -38 19 -45 126 -45 81 0 106 3
119 16 16 17 12 53 -9 66 -19 13 -211 9 -224 -4z"/>
<path d="M2411 2716 c-8 -9 -11 -46 -9 -107 l3 -94 105 0 105 0 0 105 0 105
-96 3 c-74 2 -99 -1 -108 -12z"/>
<path d="M1059 2388 c-20 -8 -26 -42 -10 -53 16 -9 3024 -13 3044 -3 22 11 22
45 -1 57 -21 11 -3002 10 -3033 -1z"/>
<path d="M1820 2191 c0 -38 -5 -38 -34 -4 -31 35 -42 25 -38 -36 4 -56 22 -71
22 -18 l1 32 27 -33 c15 -18 30 -32 35 -32 11 0 8 108 -3 115 -6 4 -10 -7 -10
-24z"/>
<path d="M2762 2198 c-19 -19 -22 -20 -22 -5 0 9 -7 17 -16 17 -12 0 -14 -10
-12 -52 2 -30 8 -53 16 -56 7 -2 12 5 12 19 l0 22 23 -21 c41 -39 63 -26 25
15 -20 21 -20 24 -5 41 18 19 23 42 9 42 -4 0 -18 -10 -30 -22z"/>
<path d="M3228 2215 c-11 -11 36 -116 51 -113 7 2 22 26 32 53 22 59 22 55 8
55 -5 0 -17 -17 -26 -37 l-16 -38 -11 32 c-12 35 -29 57 -38 48z"/>
<path d="M3850 2207 c0 -8 7 -20 15 -27 8 -7 15 -28 15 -46 0 -24 5 -34 15
-34 9 0 15 9 15 25 0 14 7 37 16 51 21 31 11 43 -16 19 -11 -10 -20 -13 -20
-7 0 6 -9 16 -20 22 -16 8 -20 8 -20 -3z"/>
<path d="M1154 2196 c-9 -24 0 -89 14 -94 7 -2 12 5 12 19 l0 22 23 -21 c41
-39 63 -26 25 15 -20 21 -20 24 -5 41 10 10 17 22 17 25 0 13 -23 7 -42 -10
-17 -15 -18 -15 -18 0 0 21 -19 22 -26 3z"/>
<path d="M1282 2198 c-17 -17 -15 -64 4 -83 24 -23 66 -15 83 16 13 24 13 29
-2 53 -19 28 -63 36 -85 14z m52 -14 c19 -7 21 -35 4 -52 -7 -7 -17 -8 -30 -1
-21 11 -23 30 -6 47 14 14 12 14 32 6z"/>
<path d="M1400 2155 c0 -42 3 -55 15 -55 8 0 15 7 15 15 0 8 4 15 9 15 5 0 14
-7 21 -15 18 -22 33 -18 20 5 -7 14 -7 25 1 38 20 32 4 52 -41 52 l-40 0 0
-55z m63 20 c1 -5 -6 -11 -15 -13 -11 -2 -18 3 -18 13 0 17 30 18 33 0z"/>
<path d="M1520 2155 l0 -55 40 0 c44 0 55 17 15 22 -32 4 -37 22 -7 26 27 4
19 22 -9 22 -11 0 -17 5 -14 10 3 6 17 10 31 10 13 0 24 5 24 10 0 6 -18 10
-40 10 l-40 0 0 -55z"/>
<path d="M1637 2159 c-10 -28 -15 -54 -11 -57 4 -4 9 -1 11 6 6 15 45 16 61 0
21 -21 23 -1 4 48 -26 66 -43 66 -65 3z"/>
<path d="M1978 2168 c-3 -38 -6 -43 -26 -40 -15 1 -22 -2 -20 -10 3 -7 18 -13
34 -13 28 0 29 2 32 53 2 30 -1 52 -7 52 -5 0 -11 -19 -13 -42z"/>
<path d="M2042 2198 c-31 -31 -6 -98 36 -98 36 0 52 17 52 55 0 38 -16 55 -50
55 -14 0 -31 -5 -38 -12z m66 -34 c2 -11 -4 -27 -14 -34 -14 -12 -18 -12 -30
4 -10 14 -10 24 -3 38 13 24 43 19 47 -8z"/>
<path d="M2160 2155 l0 -56 43 3 42 3 0 50 0 50 -42 3 -43 3 0 -56z m60 25 c0
-5 -7 -10 -15 -10 -8 0 -15 5 -15 10 0 6 7 10 15 10 8 0 15 -4 15 -10z m0 -50
c0 -5 -7 -10 -15 -10 -8 0 -15 5 -15 10 0 6 7 10 15 10 8 0 15 -4 15 -10z"/>
<path d="M2352 2158 l3 -53 38 -3 c21 -2 37 1 37 7 0 6 -11 11 -25 11 -23 0
-25 4 -25 45 0 34 -4 45 -16 45 -12 0 -14 -10 -12 -52z"/>
<path d="M2460 2154 c0 -73 24 -70 28 4 2 42 0 52 -12 52 -13 0 -16 -12 -16
-56z"/>
<path d="M2520 2155 c0 -42 3 -55 15 -55 12 0 15 13 15 55 0 42 -3 55 -15 55
-12 0 -15 -13 -15 -55z"/>
<path d="M2587 2203 c-4 -3 -7 -28 -7 -55 0 -36 4 -48 15 -48 10 0 15 10 15
33 l0 32 26 -32 c14 -18 30 -33 35 -33 5 0 9 25 9 55 0 30 -4 55 -10 55 -5 0
-10 -11 -10 -25 0 -14 -3 -25 -6 -25 -3 0 -15 11 -26 25 -20 26 -30 30 -41 18z"/>
<path d="M2910 2174 c0 -51 15 -74 50 -74 35 0 50 23 50 74 0 54 -28 48 -32
-6 -2 -30 -8 -43 -18 -43 -10 0 -16 13 -18 43 -4 54 -32 60 -32 6z"/>
<path d="M3040 2155 c0 -30 5 -55 10 -55 6 0 10 14 10 30 0 38 10 38 35 0 31
-46 45 -38 45 25 0 44 -3 55 -16 55 -12 0 -15 -7 -12 -25 3 -14 1 -25 -3 -25
-5 0 -16 11 -25 25 -28 43 -44 32 -44 -30z"/>
<path d="M3170 2154 c0 -73 24 -70 28 4 2 42 0 52 -12 52 -13 0 -16 -12 -16
-56z"/>
<path d="M3360 2155 l0 -55 35 0 c19 0 35 5 35 10 0 6 -9 10 -19 10 -11 0 -23
5 -26 10 -3 6 3 10 14 10 12 0 21 7 21 15 0 8 -9 15 -20 15 -11 0 -20 5 -20
10 0 6 11 10 25 10 14 0 25 5 25 10 0 6 -16 10 -35 10 l-35 0 0 -55z"/>
<path d="M3462 2158 c2 -30 8 -53 16 -56 6 -2 12 3 12 12 0 20 9 20 32 -1 22
-19 34 -12 20 13 -7 12 -6 23 1 35 18 29 1 49 -43 49 l-41 0 3 -52z m61 17 c1
-5 -6 -11 -15 -13 -11 -2 -18 3 -18 13 0 17 30 18 33 0z"/>
<path d="M3587 2203 c-15 -14 -6 -34 23 -52 31 -19 31 -37 -1 -21 -19 11 -35
-2 -24 -20 11 -18 64 -11 75 9 11 22 -9 51 -36 51 -8 0 -14 5 -14 11 0 7 10 9
25 5 18 -5 25 -2 25 9 0 10 -10 15 -33 15 -19 0 -37 -3 -40 -7z"/>
<path d="M3694 2196 c-9 -24 0 -89 14 -94 8 -3 12 12 12 52 0 53 -14 74 -26
42z"/>
<path d="M3740 2200 c0 -5 9 -10 20 -10 17 0 20 -7 20 -45 0 -25 5 -45 10 -45
6 0 10 20 10 45 0 33 4 45 15 45 8 0 15 5 15 10 0 6 -20 10 -45 10 -25 0 -45
-4 -45 -10z"/>
<path d="M3786 1948 c-9 -12 -16 -35 -16 -50 0 -28 -1 -28 -60 -28 -33 0 -60
-2 -60 -5 0 -4 7 -19 15 -35 29 -55 45 -60 210 -60 165 0 181 5 210 60 8 16
15 31 15 35 0 3 -27 5 -60 5 l-60 0 0 40 c0 50 -17 60 -109 60 -61 0 -72 -3
-85 -22z m144 -53 c0 -24 -3 -25 -55 -25 -52 0 -55 1 -55 25 0 24 3 25 55 25
52 0 55 -1 55 -25z"/>
<path d="M1981 1931 c-15 -28 -14 -84 3 -106 11 -16 16 -17 29 -6 23 19 30 66
15 97 -17 35 -34 40 -47 15z"/>
<path d="M3151 1921 c-8 -5 -11 -55 -9 -177 3 -161 4 -169 23 -169 19 0 20 8
23 171 2 138 0 173 -11 177 -8 3 -19 2 -26 -2z"/>
<path d="M3251 1921 c-8 -5 -11 -55 -9 -177 3 -161 4 -169 23 -169 19 0 20 8
23 171 2 138 0 173 -11 177 -8 3 -19 2 -26 -2z"/>
<path d="M27 1828 c55 -203 181 -487 298 -673 205 -326 514 -635 840 -840 112
-71 360 -192 485 -238 115 -42 240 -78 240 -69 0 4 -37 17 -82 30 -180 50
-450 173 -634 288 -312 195 -613 492 -818 806 -126 194 -258 482 -313 685 -15
57 -31 103 -35 103 -4 0 5 -42 19 -92z"/>
<path d="M2445 1900 c-13 -22 16 -90 53 -119 20 -17 40 -31 44 -31 5 0 8 22 8
48 0 50 -16 75 -67 101 -27 13 -30 14 -38 1z"/>
<path d="M2642 1895 c-45 -20 -82 -111 -52 -130 13 -8 66 21 84 47 16 23 22
98 9 98 -5 -1 -23 -7 -41 -15z"/>
<path d="M5082 1798 c-50 -180 -173 -450 -288 -634 -201 -322 -516 -637 -838
-838 -184 -115 -454 -238 -633 -288 -46 -13 -83 -26 -83 -30 0 -9 125 27 240
69 125 46 373 167 485 238 326 205 635 514 840 840 71 112 192 360 238 485 42
115 78 240 69 240 -4 0 -17 -37 -30 -82z"/>
<path d="M1902 1845 c-16 -35 -15 -77 2 -100 33 -46 67 28 41 91 -17 41 -28
43 -43 9z"/>
<path d="M1162 1848 c-19 -19 -14 -55 10 -72 18 -13 51 -16 158 -16 133 0 169
7 156 29 -5 7 -56 11 -152 11 -89 0 -144 4 -144 10 0 6 26 10 58 10 127 0 242
13 242 26 0 19 -310 20 -328 2z"/>
<path d="M3046 1835 c-12 -12 -16 -35 -16 -85 0 -81 6 -100 30 -100 24 0 30
19 30 105 0 81 -15 109 -44 80z"/>
<path d="M3351 1841 c-8 -5 -11 -35 -9 -97 3 -81 5 -89 23 -89 18 0 20 8 23
91 2 71 0 93 -11 97 -8 3 -19 2 -26 -2z"/>
<path d="M2057 1802 c-23 -26 -4 -42 49 -42 49 0 74 21 54 45 -18 21 -83 19
-103 -3z"/>
<path d="M1819 1753 c-18 -49 10 -127 40 -109 20 13 23 72 7 105 -20 38 -33
39 -47 4z"/>
<path d="M3650 1695 c0 -116 -2 -115 228 -115 228 0 222 -3 222 113 l0 77 -32
-20 c-21 -12 -51 -20 -80 -20 -44 0 -48 -2 -48 -23 0 -54 -84 -79 -114 -35 -9
12 -16 30 -16 40 0 14 -8 18 -43 18 -23 0 -59 9 -80 20 l-37 20 0 -75z"/>
<path d="M1057 1720 c-14 -11 -29 -29 -32 -40 -7 -23 18 -75 40 -84 9 -3 95
-6 191 -6 l174 0 0 30 0 30 -170 0 c-144 0 -170 2 -170 15 0 13 30 15 214 15
177 0 216 3 226 15 7 8 10 22 6 30 -5 13 -39 15 -229 15 -210 0 -226 -1 -250
-20z"/>
<path d="M1994 1730 c-33 -13 -40 -31 -19 -47 32 -23 115 -15 115 12 0 29 -59
51 -96 35z"/>
<path d="M2400 1714 c15 -40 39 -64 77 -80 53 -23 73 -18 73 14 0 45 -48 84
-110 90 l-50 5 10 -29z"/>
<path d="M2650 1733 c-34 -13 -60 -47 -60 -80 0 -39 14 -42 77 -14 38 18 73
61 73 91 0 10 -63 13 -90 3z"/>
<path d="M3850 1710 c0 -15 7 -20 25 -20 18 0 25 5 25 20 0 15 -7 20 -25 20
-18 0 -25 -5 -25 -20z"/>
<path d="M1470 1620 l0 -31 53 3 c48 3 52 5 52 28 0 23 -4 25 -52 28 l-53 3 0
-31z"/>
<path d="M1914 1640 c-54 -21 -30 -60 36 -60 59 0 81 37 35 58 -30 14 -42 14
-71 2z"/>
<path d="M2364 1576 c-30 -23 -7 -35 71 -38 57 -2 70 -6 73 -20 3 -16 -5 -18
-61 -18 -78 0 -97 -6 -97 -30 0 -16 11 -19 78 -23 42 -2 87 -7 100 -12 21 -7
22 -5 22 53 0 53 -3 63 -26 81 -32 25 -129 29 -160 7z"/>
<path d="M2623 1580 c-31 -13 -44 -44 -41 -98 3 -41 6 -47 23 -43 11 2 55 6
98 8 66 4 77 7 77 23 0 24 -19 30 -92 30 -51 0 -59 2 -56 18 3 14 16 18 76 20
54 2 72 6 72 17 0 8 -9 19 -19 25 -24 12 -107 12 -138 0z"/>
</g>
</svg>
